<svg width="35" height="35" viewBox="0 0 35 35" fill="none" xmlns="http://www.w3.org/2000/svg">
<rect width="35" height="35" fill="#212121"/>
<path fill-rule="evenodd" clip-rule="evenodd" d="M11 18.0006C11 17.868 11.0527 17.7408 11.1464 17.6471C11.2402 17.5533 11.3674 17.5006 11.5 17.5006H23.293L20.146 14.3546C20.0521 14.2607 19.9994 14.1334 19.9994 14.0006C19.9994 13.8679 20.0521 13.7405 20.146 13.6466C20.2399 13.5527 20.3672 13.5 20.5 13.5C20.6328 13.5 20.7601 13.5527 20.854 13.6466L24.854 17.6466C24.9006 17.6931 24.9375 17.7483 24.9627 17.809C24.9879 17.8697 25.0009 17.9349 25.0009 18.0006C25.0009 18.0664 24.9879 18.1315 24.9627 18.1923C24.9375 18.253 24.9006 18.3082 24.854 18.3546L20.854 22.3546C20.7601 22.4485 20.6328 22.5013 20.5 22.5013C20.3672 22.5013 20.2399 22.4485 20.146 22.3546C20.0521 22.2607 19.9994 22.1334 19.9994 22.0006C19.9994 21.8679 20.0521 21.7405 20.146 21.6466L23.293 18.5006H11.5C11.3674 18.5006 11.2402 18.448 11.1464 18.3542C11.0527 18.2604 11 18.1332 11 18.0006Z" fill="#F7F7F7"/>
</svg>
