<svg width="15" height="15" viewBox="0 0 15 15" fill="none" xmlns="http://www.w3.org/2000/svg">
<g clip-path="url(#clip0_298_4139)">
<path d="M6.09375 1.10231H8.90625C9.03057 1.10231 9.1498 1.15173 9.23771 1.23971C9.32561 1.32769 9.375 1.44701 9.375 1.57143V2.50968H5.625V1.57143C5.625 1.44701 5.67439 1.32769 5.76229 1.23971C5.8502 1.15173 5.96943 1.10231 6.09375 1.10231ZM10.3125 2.50968V1.57143C10.3125 1.19817 10.1643 0.840204 9.90062 0.576271C9.6369 0.312338 9.27921 0.164063 8.90625 0.164063L6.09375 0.164062C5.72079 0.164063 5.3631 0.312338 5.09938 0.576271C4.83566 0.840204 4.6875 1.19817 4.6875 1.57143V2.50968H1.40625C1.28193 2.50968 1.1627 2.5591 1.07479 2.64708C0.986886 2.73506 0.9375 2.85438 0.9375 2.9788C0.9375 3.10322 0.986886 3.22254 1.07479 3.31052C1.1627 3.3985 1.28193 3.44792 1.40625 3.44792H1.91063L2.71031 13.4496C2.74802 13.9199 2.96133 14.3586 3.30776 14.6786C3.65418 14.9985 4.10831 15.1761 4.57969 15.176H10.4203C10.8917 15.1761 11.3458 14.9985 11.6922 14.6786C12.0387 14.3586 12.252 13.9199 12.2897 13.4496L13.0894 3.44792H13.5938C13.7181 3.44792 13.8373 3.3985 13.9252 3.31052C14.0131 3.22254 14.0625 3.10322 14.0625 2.9788C14.0625 2.85438 14.0131 2.73506 13.9252 2.64708C13.8373 2.5591 13.7181 2.50968 13.5938 2.50968H10.3125ZM12.1481 3.44792L11.355 13.3746C11.3361 13.6097 11.2295 13.8291 11.0563 13.989C10.8831 14.149 10.656 14.2378 10.4203 14.2377H4.57969C4.344 14.2378 4.11694 14.149 3.94372 13.989C3.77051 13.8291 3.66386 13.6097 3.645 13.3746L2.85188 3.44792H12.1481ZM5.12906 4.38617C5.25312 4.37899 5.37496 4.42141 5.46778 4.5041C5.5606 4.58679 5.61681 4.70299 5.62406 4.82714L6.09281 12.8022C6.09774 12.9249 6.05439 13.0447 5.97208 13.1357C5.88977 13.2268 5.77505 13.282 5.65257 13.2893C5.53009 13.2967 5.4096 13.2557 5.31698 13.1752C5.22436 13.0946 5.16699 12.9809 5.15719 12.8585L4.6875 4.88344C4.68369 4.82181 4.69208 4.76003 4.71218 4.70165C4.73229 4.64327 4.76371 4.58944 4.80464 4.54324C4.84558 4.49704 4.89523 4.45938 4.95074 4.43243C5.00625 4.40548 5.06653 4.38975 5.12812 4.38617H5.12906ZM9.87094 4.38617C9.93253 4.38975 9.99281 4.40548 10.0483 4.43243C10.1038 4.45938 10.1535 4.49704 10.1944 4.54324C10.2354 4.58944 10.2668 4.64327 10.2869 4.70165C10.307 4.76003 10.3154 4.82181 10.3116 4.88344L9.84281 12.8585C9.84031 12.9209 9.82541 12.9821 9.79898 13.0386C9.77255 13.0951 9.73512 13.1458 9.68888 13.1876C9.64265 13.2295 9.58854 13.2617 9.52971 13.2823C9.47089 13.303 9.40854 13.3117 9.34631 13.308C9.28408 13.3042 9.22322 13.2881 9.1673 13.2605C9.11137 13.233 9.0615 13.1945 9.02061 13.1474C8.97972 13.1003 8.94863 13.0455 8.92915 12.9862C8.90968 12.927 8.90221 12.8644 8.90719 12.8022L9.37594 4.82714C9.38319 4.70299 9.4394 4.58679 9.53222 4.5041C9.62504 4.42141 9.74688 4.37899 9.87094 4.38617ZM7.5 4.38617C7.62432 4.38617 7.74355 4.43559 7.83146 4.52357C7.91936 4.61155 7.96875 4.73087 7.96875 4.85529V12.8304C7.96875 12.9548 7.91936 13.0741 7.83146 13.1621C7.74355 13.2501 7.62432 13.2995 7.5 13.2995C7.37568 13.2995 7.25645 13.2501 7.16854 13.1621C7.08064 13.0741 7.03125 12.9548 7.03125 12.8304V4.85529C7.03125 4.73087 7.08064 4.61155 7.16854 4.52357C7.25645 4.43559 7.37568 4.38617 7.5 4.38617Z" fill="white"/>
</g>
<defs>
<clipPath id="clip0_298_4139">
<rect width="15" height="15" fill="white"/>
</clipPath>
</defs>
</svg>
