<svg xmlns="http://www.w3.org/2000/svg" width="190" height="36" fill="#212121" xmlns:v="https://vecta.io/nano"><path d="M7.054 36c-1.506-.218-2.171-.911-2.258-2.25-.018-.285-.009-.571-.009-.857V18.839v-1.056L.125 20.59c-.301-.481.005-.611.235-.755l2.778-1.718 1.173-.716a.83.83 0 0 0 .483-.818l-.011-14.14C4.785 1.3 4.303.534 3.159.113L5.055.091h1.957v15.505l.682-.317 11.539-7.155L31.642.417c.32-.197.742-.285 1.124-.312.704-.049 1.413-.014 2.173.144l-1.47.951-16.481 10.592-6.246 4.546c-.819.64-1.494 1.5-2.111 2.349-.587.807-.45 1.636.22 2.233.229.204.522.36.813.466l2.924 1.004 6.211 1.72 10.496 2.979c2.246.68 4.095 2.032 5.605 3.825.979 1.162 1.577 2.509 1.891 3.985a1.3 1.3 0 0 1-.052.699c-.063-.136-.14-.267-.186-.409-.508-1.57-1.542-2.714-2.92-3.582-1.321-.833-2.763-1.402-4.257-1.812l-6.742-1.725-10.981-2.831c-.812-.22-1.581-.669-2.308-1.113-.997-.61-1.56-1.553-1.833-2.691-.428-1.782-.162-3.401 1.06-4.809l2.192-2.428c-.227.097-.396.148-.541.236L7.796 15.9c-.569.312-.766.7-.761 1.362l.018 13.626v4.285.826V36zm148.785-.427c-.813-2.549-2.705-3.943-5.006-4.916-2.012-.852-4.13-1.362-6.245-1.888l-13.903-3.536c-.889-.237-1.725-.761-2.513-1.266-.904-.579-1.373-1.495-1.627-2.534-.435-1.783-.155-3.4 1.062-4.808l2.191-2.427c-.227.098-.397.15-.544.239l-2.496 1.517c-.516.285-.688.638-.684 1.227l.013 14.054v3.856.841c-1.221.002-1.948-.556-2.18-1.676-.081-.387-.083-.794-.083-1.192l-.004-14.14v-1.035c-.233.088-.415.127-.564.218l-3.451 2.1c-.21.127-.436.227-.673.348-.27-.447.033-.576.263-.719l2.778-1.718 1.174-.716a.83.83 0 0 0 .48-.819l-.011-14.14c.002-1.143-.481-1.907-1.646-2.255 1.284-.105 2.541-.094 3.876-.092v15.501l.683-.318 11.538-7.155L150.676.413c.297-.184.685-.286 1.039-.309.732-.046 1.47-.014 2.255.142l-1.54 1.004-17.771 11.444c-2.062 1.343-4.119 2.72-5.828 4.518-.45.474-.882.986-1.216 1.545-.605 1.013-.304 1.985.778 2.474.804.364 1.655.64 2.505.89l6.937 1.985 10.494 2.982c2.247.681 4.095 2.032 5.605 3.825.979 1.162 1.574 2.51 1.892 3.985.03.139.044.283.049.424.004.082-.023.166-.037.249h.001zm33.681-21.606a17.68 17.68 0 0 0-4.902-9.062c-2.474-2.472-5.416-4.128-8.909-4.639-1.352-.198-2.05-.295-3.428-.258-3.238.087-6.856 1.021-9.467 2.866-5.163 3.648-7.593 8.739-7.777 14.965 0 .513-.049 1.033.008 1.54.383 3.43 1.432 6.624 3.522 9.42 2.215 2.964 5.033 5.122 8.596 6.267 2.238.72 4.519.924 6.863.748 3.398-.255 6.388-1.475 9.05-3.555 2.541-1.987 4.337-4.52 5.571-7.475.913-2.192 1.258-4.51 1.347-6.842.05-1.319-.202-2.672-.474-3.976zm-2.469 4.118c-.076 4.637-1.428 8.812-4.569 12.324-2.215 2.478-4.954 4.071-8.274 4.511-4.209.558-7.8-.838-10.827-3.712-2.909-2.761-4.505-6.207-5.147-10.128-.636-3.884-.161-7.629 1.459-11.204 1.638-3.611 4.167-6.41 7.882-8.01 3.786-1.63 7.51-1.37 11.08.601 3.863 2.131 6.214 5.495 7.522 9.626.592 1.869.912 3.741.874 5.991zm-84.997 16.86h-1.105c-.083-.552-.211-1.022-.212-1.49l-.01-13.11c0-.161.038-.323.061-.506l.551-.034 9.472-.002.344.007c.697.07 1.075.509 1.037 1.205l-.065.597.131.032 1.601-2.655h-13.082l-.048-.4-.01-15.166c.004-1.713 1.304-2.931 3.037-2.932l13.605-.003c.257 0 .515-.027.772-.04-.107-.207-.224-.331-.342-.331L94.658.107l-.022.201c.739.42 1.631-.003 2.473.279l-.521.834-11.09 16.934-9.889 15.155c-.638.986-1.43 1.522-2.619 1.44-.169-.011-.344.047-.539.077.453.771 1.075.953 1.858.902.857-.055 1.72-.008 2.582-.016.18-.002.359-.051.552-.08-.263-.614-.648-.969-1.329-.952l.197-.38 9.204-14.169c.274-.424.579-.539 1.051-.538l11.021.009.72.034.04.361-.036 11.909c-.013 1.623-1.212 2.776-2.84 2.841-.284.011-.592-.092-.905.091.501.463.868.901 1.63.898l21.182-.022c.181 0 .364-.018.689-.035-.698-.642-1.291-.965-2.151-.957l-13.863.021zm-3.707-16.327c0 .083-.022.167-.042.316-.207.022-.425.065-.642.065l-6.457.002c-1.486-.006-2.778-.402-3.561-1.915l10.341-15.91.226.007c.046.3.134.599.134.898l.002 16.537zM50.584.136h5.25c-.019.051-.027.128-.053.135-1.093.298-1.354 1.125-1.355 2.111l-.006 9.085-.01 20.656c0 .738.082 1.478.145 2.215.014.162.11.316.208.581h15.746v.973h-20.3c.19-.365.506-.363.749-.455.615-.233 1.025-.612 1.071-1.304l.096-1.017.003-30.427-.029-.77c-.073-.775-.416-1.353-1.208-1.593-.069-.021-.127-.077-.307-.19zM40.708.089l4.375.002.68.03c-.034.081-.042.157-.072.166-.977.315-1.286 1.055-1.292 1.992l-.017 2.57v26.643l.012 1.799c-.031 1.149.322 2.023 1.572 2.301.078.017.149.075.22.12.021.014.03.045.045.069-.548.217-5.088.243-6.168-.018l.91-.343a1.41 1.41 0 0 0 1.032-1.241c.044-.338.114-.676.115-1.015l.009-9.08.011-20.304-.019-1.371c-.034-1.004-.275-1.878-1.459-2.144l.049-.178-.003.001z"/></svg>